<?xml version="1.0" encoding="UTF-8"?>
<svg id="svgs" xmlns="http://www.w3.org/2000/svg" viewBox="0 0 950 450">
  <defs>
    <style>
      .cls-1 {
        stroke-width: 0px;
      }

      .cls-1, .cls-2 {
        fill: #fff;
      }

      .cls-2 {
        font-family: BookmanOldStyle, 'Bookman Old Style';
        font-size: 110px;
      }
    </style>
  </defs>
  <g id="APSA">
    <g>
      <path class="cls-1" d="m257.22,225c1.26,3.43,2.41,6.91,3.78,10.29,24.71,61.2,49.43,122.4,74.18,183.59,2.15,5.31,4.37,10.59,6.73,15.81,3.37,7.46,8.77,12.36,17.29,13.16.62.06,1.16.89,1.74,1.36-.14.21-.28.42-.43.64h-51.62c-.15-.19-.3-.38-.45-.57.55-.5,1.03-1.31,1.67-1.47,5.17-1.27,6.7-3.07,5.18-8.24-1.85-6.29-4.39-12.4-6.85-18.49-9.49-23.5-19.09-46.95-28.56-70.45-.86-2.14-1.87-2.92-4.26-2.91-19.72.11-39.45.07-59.17.06-1.41,0-2.51-.02-3.21,1.73-11.49,28.98-23.07,57.92-34.61,86.89-.51,1.27-.86,2.6-1.23,3.92-1.25,4.49-.03,6.47,4.48,7.3.67.12,1.35.22,2.06.33.56,1.33.39,2.04-1.32,2.04-10.37-.04-20.74-.02-31.13-.02-.64-1.37-.56-2.1,1.13-2.18,7.59-.37,12.65-4.46,15.52-11.23,4.91-11.58,9.73-23.21,14.37-34.9,23.22-58.48,46.37-116.99,69.54-175.49.16-.4.35-.78.53-1.17,1.54,0,3.09,0,4.63,0Zm18.62,116.33c-9.91-25-19.74-49.81-29.84-75.29-10.09,25.48-19.92,50.27-29.83,75.29h59.67Z"/>
      <path class="cls-1" d="m120.31,225c5.17,1.02,10.36,1.98,15.51,3.09,3.34.72,7.4.75,9.75,2.73,2.31,1.95,2.94,5.95,4.18,9.1,2.37,6.05,4.65,12.13,6.97,18.2-.15.22-.29.45-.43.67-.87-.45-1.92-.72-2.59-1.38-4.17-4.07-8.01-8.51-12.42-12.29-12.84-10.99-28-14.61-44.58-13.19-10.99.94-20.83,4.59-29.09,12.14-13.93,12.73-18.06,34.27-9.61,50.11,2.93,5.49,7.41,9.35,12.56,12.58,8.36,5.23,17.67,8.16,26.86,11.45,11.84,4.24,23.93,8.07,35.23,13.48,16.49,7.89,29.38,20.02,34.02,38.38,6.54,25.84-.84,50.18-22.31,67.75-7.83,6.41-17.07,8.7-26.78,10.12-14.23,2.08-28.53,2.11-42.85,2.02-12.09-.07-24.19-.01-36.28-.01h-2.97v-64.29c1.76-.81,2.2-.02,2.25,1.78.24,8.33,1.18,16.55,3.68,24.57,4.12,13.2,12.76,21.97,25.81,26.14,18.92,6.05,38.16,6.77,57.18.88,15.9-4.92,26.73-15.61,30.78-32.02,4.58-18.52-2.93-34.64-20.24-44.69-10.43-6.05-21.9-9.66-33.14-13.82-8.66-3.21-17.24-6.67-25.78-10.21-5.49-2.27-10.21-5.2-14.25-8.7-12.3-10.64-16.46-24.21-17.66-29.24-1.49-6.19-1.58-11.46-1.63-14.86-.05-3.69-.09-9.91,1.66-16.98.66-2.66,3.75-14.22,13.89-24.98,6.58-6.99,14.98-12.23,25.16-15.74,3.53-1.22,7.24-1.89,10.87-2.82h26.25Z"/>
    </g>
    <path class="cls-1" d="m113.71,0c1.26,3.44,2.42,6.92,3.78,10.31,24.73,61.33,49.48,122.66,74.25,183.98,2.21,5.48,4.5,10.94,6.96,16.31,2.28,4.97,5.63,9.08,10.89,11.12,1.06.41,2.57.41,3.62-.01,4.4-1.77,6.53-5.34,7.1-9.93.11-.85.09-1.72.09-2.57,0-62.32.02-124.64-.04-186.97,0-2.98-.52-5.98-1.01-8.93-.75-4.47-3.74-6.79-8.01-7.57-2.01-.37-4.07-.52-6.29-.79v-2.29h2.84c20.52,0,41.03-.13,61.55.05,13.47.12,26.97.61,39.99,4.56,10.91,3.31,20.28,9.15,27.61,18.03,5.22,6.32,6.93,12.69,7.98,16.29.48,1.64,2.32,8.25,2.18,16.94-.1,6.45-1.31,14.41-1.61,14.39,0,0-.02,0-.02-.02-.49,1.72-.91,3.24-1.37,4.75-4.79,15.58-15.71,25.21-30.33,31.13-12.54,5.08-25.69,6.41-39.07,6.22-.47-2.23-.47-2.24,1.71-2.31,11.8-.36,22.39-3.85,31.2-12.02,9.49-8.81,13.71-19.92,14.12-32.64.45-14.01-2.41-27.16-10.73-38.74-7.94-11.04-19.11-16.64-32.33-17.77-10.41-.89-20.9-.78-31.35-1.1-.24,0-.48.13-.95.27-.04.87-.13,1.79-.13,2.7,0,63.44-.02,126.88.03,190.32,0,3.16.34,6.35.76,9.49.87,6.38,3.38,8.76,9.81,9.57,2.12.26,4.24.41,6.41.61.48,1.36.33,2.21-1.36,2.09-.43-.03-.86,0-1.29,0-30.9,0-61.81,0-92.71,0h-2.65v-1.9c.14-.09.26-.24.4-.26,6.2-1.07,7.88-3.34,5.86-9.49-2.33-7.07-5.25-13.95-8.04-20.86-9.06-22.43-18.21-44.82-27.23-67.26-.84-2.08-1.88-2.76-4.12-2.75-19.66.1-39.32.09-58.97,0-2.13,0-3.13.62-3.93,2.64-11.32,28.65-22.75,57.26-34.13,85.89-.54,1.35-.94,2.76-1.34,4.16-1.3,4.62-.08,6.54,4.67,7.4,1.21.22,2.79.08,1.85,2.22H7.74c-.15-.21-.3-.41-.44-.62.56-.48,1.1-1.34,1.69-1.37,7.71-.49,12.77-4.64,15.67-11.52,4.86-11.54,9.66-23.1,14.28-34.74C62.17,118.43,85.34,59.79,108.54,1.17c.16-.4.35-.78.53-1.17h4.64Zm-11.22,41.13c-10.11,25.54-19.93,50.35-29.85,75.4h59.69c-9.91-25.03-19.73-49.86-29.84-75.4Z"/>
    <text class="cls-2" transform="translate(378.33 77.76)"><tspan x="0" y="0">A</tspan></text>
    <text class="cls-2" transform="translate(453.15 77.76) scale(.7)"><tspan x="0" y="0">MERICAN</tspan></text>
    <text class="cls-2" transform="translate(378.33 201.76)"><tspan x="0" y="0">P</tspan></text>
    <text class="cls-2" transform="translate(446.55 201.76) scale(.7)"><tspan x="0" y="0">HYSICIAN</tspan></text>
    <text class="cls-2" transform="translate(378.33 325.76)"><tspan x="0" y="0">S</tspan></text>
    <text class="cls-2" transform="translate(450.95 325.76) scale(.7)"><tspan x="0" y="0">CIENTIST</tspan></text>
    <text class="cls-2" transform="translate(378.33 449.76)"><tspan x="0" y="0">A</tspan></text>
    <text class="cls-2" transform="translate(453.15 449.76) scale(.7)"><tspan x="0" y="0">SSOCIATION</tspan></text>
  </g>
</svg>