<?xml version="1.0" encoding="UTF-8"?>
<svg id="svgs" xmlns="http://www.w3.org/2000/svg" viewBox="0 0 500 500">
  <defs>
    <style>
      .cls-1 {
        fill: #fff;
        fill-rule: evenodd;
        stroke-width: 0px;
      }
    </style>
  </defs>
  <g id="Github">
    <path class="cls-1" d="m325.97,334c14.4,20.86,15.14,44.65,14.91,68.76-.28,29.2-.05,58.4-.02,87.6.01,9.38-.22,9.63-9.33,9.63-38.21,0-76.42,0-114.63,0-8.52,0-9.29-.81-9.28-9.37.03-18.62,0-37.25,0-56.87-6.59.67-13.2,1.38-19.82,2.02-32.29,3.13-60.42-5.13-82.21-30.36-3.05-3.53-5.48-7.62-8-11.58-11.09-17.46-21.83-35.15-33.31-52.35-3.55-5.32-9.05-9.34-13.65-13.97-2.42-2.44-4.82-4.9-7.67-7.8,7.97-5.18,15.6-3.77,22.82-2.66,18.04,2.78,30.23,13.95,39.89,28.77,4.81,7.38,9.78,14.9,15.95,21.08,19.77,19.79,43.78,26.17,70.98,20,17.54-3.98,14.14-2.13,16.76-18.16,1.75-10.7,4.7-20.9,10.53-30.14.97-1.53,1.77-3.17,2.96-5.33-7.7-1.52-14.89-2.74-21.98-4.37-28.14-6.49-54.09-17.46-74.63-38.55-21.76-22.36-33.54-49.13-34.36-80.56-.69-26.41-.53-52.73,5.45-78.67,3.84-16.65,10.78-31.57,22.96-43.94,1.89-1.92,2.99-6.46,2.11-8.96-8.68-24.71-7.49-49.13.53-73.7,1.38-4.23,2.83-5.24,7.05-4.09,15.48,4.23,28.72,12.22,39.77,23.66,7.54,7.81,14.44,16.24,21.93,24.74,19.12-13.81,41.73-14.3,64.05-15.6,24.67-1.44,49.37-1.05,73.61,4.21,9.42,2.04,18.37,6.21,26.74,9.13,9.83-9.34,19.99-18.85,29.99-28.53,9.03-8.74,19.72-14.18,31.79-17.41,4.62-1.23,6.96-.14,8.53,4.37,8.3,23.91,9.7,47.82.38,71.79-1.36,3.5-2.29,6.79.92,9.86,16.31,15.6,24.43,35.24,26.15,57.25,1.82,23.24,4.01,46.68,2.86,69.88-2.12,43.05-23.49,75.38-60.63,97.12-19.91,11.66-41.64,18.05-64.35,21.41-1.3.19-2.61.32-3.9.6-.52.11-.97.54-1.88,1.09Z"/>
  </g>
</svg>