<?xml version="1.0" encoding="UTF-8"?>
<svg id="svgs" xmlns="http://www.w3.org/2000/svg" viewBox="0 0 500 500">
  <defs>
    <style>
      .cls-1 {
        fill: #fff;
        stroke-width: 0px;
      }
    </style>
  </defs>
  <g id="Instagram">
    <path class="cls-1" d="m251,120.96c-70.56,0-129.03,57.46-129.03,129.03s57.46,129.03,129.03,129.03,129.03-58.47,129.03-129.03-58.47-129.03-129.03-129.03Zm0,211.69c-45.36,0-82.66-37.3-82.66-82.66s37.3-82.66,82.66-82.66,82.66,37.3,82.66,82.66-37.3,82.66-82.66,82.66Z"/>
    <circle class="cls-1" cx="385.07" cy="117.94" r="29.23"/>
    <path class="cls-1" d="m460.68,42.33C434.47,15.11,397.17,1,354.83,1h-207.66C59.47,1,1,59.47,1,147.17v206.65c0,43.35,14.11,80.65,42.34,107.86,27.22,26.21,63.51,39.31,104.84,39.31h205.65c43.35,0,79.64-14.11,105.85-39.31,27.22-26.21,41.33-63.51,41.33-106.85v-207.66c0-42.34-14.11-78.63-40.32-104.84Zm-4.03,312.5c0,31.25-11.09,56.45-29.23,73.59-18.15,17.14-43.35,26.21-73.59,26.21h-205.65c-30.24,0-55.44-9.07-73.59-26.21-18.15-18.15-27.22-43.35-27.22-74.6v-206.65c0-30.24,9.07-55.44,27.22-73.59,17.14-17.14,43.35-26.21,73.59-26.21h207.66c30.24,0,55.44,9.07,73.59,27.22,17.14,18.15,27.22,43.35,27.22,72.58v207.66h0Z"/>
  </g>
</svg>