<?xml version="1.0" encoding="UTF-8"?>
<svg id="svgs" xmlns="http://www.w3.org/2000/svg" viewBox="0 0 500 500">
  <defs>
    <style>
      .cls-1 {
        fill: #fff;
        stroke-width: 0px;
      }
    </style>
  </defs>
  <path id="Search" class="cls-1" d="m492.34,449.81l-113.35-113.35c27.29-36.33,42.02-80.55,41.97-125.98C420.96,94.42,326.54,0,210.48,0S0,94.42,0,210.48s94.42,210.48,210.48,210.48c45.44.05,89.66-14.68,125.98-41.97l113.35,113.35c12.4,11.09,31.44,10.02,42.52-2.38,10.22-11.43,10.22-28.71,0-40.14h0ZM60.14,210.48c0-83.03,67.31-150.34,150.34-150.34s150.34,67.31,150.34,150.34-67.31,150.34-150.34,150.34c-82.99-.1-150.24-67.35-150.34-150.34Z"/>
</svg>