<?xml version="1.0" encoding="UTF-8"?>
<svg id="svgs" xmlns="http://www.w3.org/2000/svg" viewBox="0 0 500 500">
  <defs>
    <style>
      .cls-1 {
        fill: #fff;
        stroke-width: 0px;
      }
    </style>
  </defs>
  <path id="YouTube" class="cls-1" d="m489.47,132.17c-5.75-21.51-22.68-38.44-44.19-44.19-38.98-10.45-195.28-10.45-195.28-10.45,0,0-156.3,0-195.28,10.45-21.5,5.75-38.44,22.68-44.19,44.19C.09,171.15.09,252.48.09,252.48c0,0,0,81.33,10.44,120.3,5.75,21.51,22.68,38.44,44.19,44.19,38.98,10.44,195.28,10.44,195.28,10.44,0,0,156.3,0,195.28-10.44,21.51-5.75,38.44-22.69,44.19-44.19,10.44-38.97,10.44-120.3,10.44-120.3,0,0,0-81.33-10.44-120.31h0Zm-289.45,195.28v-149.95l129.85,74.97-129.85,74.97h0Z"/>
</svg>